M48
METRIC,LZ,000.000
;FILE_FORMAT=3:3
;TYPE=PLATED
;Layer: PTH_Through_Via
;EasyEDA v6.5.54, 2026-04-13 14:18:53
;39c23f7bb1c8414da785e3ce1528392f,81a6330f3d4149d2af66a0b9843494eb,10
;Gerber Generator version 0.2
;Holesize 1 = 0.306 mm
T01C0.306
;Holesize 2 = 0.310 mm
T02C0.310
;Holesize 3 = 0.400 mm
T03C0.400
%
G05
G90
T01
X066549Y-001842
X089930Y054484
X047752Y050546
X054455Y081587
X084782Y061154
X038256Y059677
X029191Y066805
X031559Y033658
X050219Y032148
X052721Y041400
X044308Y048184
X048260Y052324
X060159Y054504
X072071Y051270
X026112Y065785
X026459Y041213
X061898Y041225
X073025Y041656
X066040Y051689
X066544Y009261
X060853Y043033
X076927Y018196
X067245Y049403
X058547Y056134
X065478Y046060
X058674Y049911
X047558Y055935
X071882Y058166
X090545Y053898
X057785Y056515
X029129Y058897
X041656Y060071
X081806Y024257
X071094Y051251
X096676Y023337
X050162Y064386
X060613Y-000654
X058385Y-000670
X044606Y045727
X054729Y045727
X043694Y045601
X053393Y023591
X100394Y072248
X040163Y041771
X033737Y041861
X032356Y037138
X040859Y046925
X078853Y048895
X072809Y057454
X057435Y051014
X057173Y047700
X059694Y048727
X049556Y044753
X049119Y059999
X051261Y031057
X052687Y044287
X055148Y044289
X069321Y039120
X063315Y045126
X075144Y049626
X049276Y051054
X051555Y052169
X025477Y068081
X042041Y-002449
X013590Y-001540
X035985Y062792
X035564Y037199
X010648Y-003384
X050807Y039913
X051689Y032574
X053848Y032574
X056633Y080264
X062294Y084038
T02
X039996Y055880
X029337Y050927
X014732Y047117
X013970Y044577
X052578Y031115
X048514Y062292
X044958Y060960
X043434Y061468
X039116Y061595
X054610Y056642
X058293Y052070
X051054Y044450
X050800Y050419
X063246Y051943
X066548Y052705
X069086Y045847
X070487Y049784
X070487Y053340
X069086Y053340
X070487Y045847
X070487Y042037
X072136Y045339
X072644Y042926
X066929Y050546
X065024Y050927
X056261Y028194
X027789Y022098
T03
X007703Y057247
M30
