M48
METRIC,LZ,000.000
;FILE_FORMAT=3:3
;TYPE=PLATED
;Layer: PTH_Through
;EasyEDA v6.5.54, 2026-04-13 14:18:53
;39c23f7bb1c8414da785e3ce1528392f,81a6330f3d4149d2af66a0b9843494eb,10
;Gerber Generator version 0.2
;Holesize 1 = 0.306 mm
T01C0.306
;Holesize 2 = 0.310 mm
T02C0.310
;Holesize 3 = 0.400 mm
T03C0.400
;Holesize 4 = 0.500 mm
T04C0.500
;Holesize 5 = 0.551 mm
T05C0.551
;Holesize 6 = 0.889 mm
T06C0.889
;Holesize 7 = 0.901 mm
T07C0.901
;Holesize 8 = 0.915 mm
T08C0.915
;Holesize 9 = 1.000 mm
T09C1.000
;Holesize 10 = 1.101 mm
T10C1.101
;Holesize 11 = 1.200 mm
T11C1.200
%
G05
G90
T01
X066549Y-001842
X089930Y054484
X047752Y050546
X054455Y081587
X084782Y061154
X038256Y059677
X029191Y066805
X031559Y033658
X050219Y032148
X052721Y041400
X044308Y048184
X048260Y052324
X060159Y054504
X072071Y051270
X026112Y065785
X026459Y041213
X061898Y041225
X073025Y041656
X066040Y051689
X066544Y009261
X060853Y043033
X076927Y018196
X067245Y049403
X058547Y056134
X065478Y046060
X058674Y049911
X047558Y055935
X071882Y058166
X090545Y053898
X057785Y056515
X029129Y058897
X041656Y060071
X081806Y024257
X071094Y051251
X096676Y023337
X050162Y064386
X060613Y-000654
X058385Y-000670
X044606Y045727
X054729Y045727
X043694Y045601
X053393Y023591
X100394Y072248
X040163Y041771
X033737Y041861
X032356Y037138
X040859Y046925
X078853Y048895
X072809Y057454
X057435Y051014
X057173Y047700
X059694Y048727
X049556Y044753
X049119Y059999
X051261Y031057
X052687Y044287
X055148Y044289
X069321Y039120
X063315Y045126
X075144Y049626
X049276Y051054
X051555Y052169
X025477Y068081
X042041Y-002449
X013590Y-001540
X035985Y062792
X035564Y037199
X010648Y-003384
X050807Y039913
X051689Y032574
X053848Y032574
X056633Y080264
X062294Y084038
T02
X039996Y055880
X029337Y050927
X014732Y047117
X013970Y044577
X052578Y031115
X048514Y062292
X044958Y060960
X043434Y061468
X039116Y061595
X054610Y056642
X058293Y052070
X051054Y044450
X050800Y050419
X063246Y051943
X066548Y052705
X069086Y045847
X070487Y049784
X070487Y053340
X069086Y053340
X070487Y045847
X070487Y042037
X072136Y045339
X072644Y042926
X066929Y050546
X065024Y050927
X056261Y028194
X027789Y022098
T03
X007703Y057247
T04
X-000405Y045156G85X000245Y045156
X-000405Y038156G85X000245Y038156
T05
X002620Y039307G85X002620Y039007
X002620Y044305G85X002620Y044006
T06
X085725Y050292
X085725Y052832
X085725Y055372
X085725Y057912
X084963Y035179
X084963Y032639
X084963Y030099
X084963Y027559
X045085Y004001
X045085Y006541
X045085Y009081
X045085Y011621
X062865Y071174
X062865Y068634
X060325Y071174
X060325Y068634
X057785Y071174
X057785Y068634
X055245Y071174
X055245Y068634
X052705Y071174
X052705Y068634
X050165Y071174
X050165Y068634
X047625Y071174
X047625Y068634
X045085Y071174
X045085Y068634
X080137Y038989
X077597Y038989
X080137Y041529
X077597Y041529
X080137Y044069
X077597Y044069
X080137Y046609
X077597Y046609
X080137Y049149
X077597Y049149
X061595Y025654
X061595Y028194
X064135Y025654
X064135Y028194
X066675Y025654
X066675Y028194
X030607Y047552
X028067Y047552
X030607Y050092
X028067Y050092
X030607Y052632
X028067Y052632
X030607Y055172
X028067Y055172
X030607Y057712
X028067Y057712
X030607Y060252
X028067Y060252
X030607Y062792
X028067Y062792
X030607Y065332
X028067Y065332
X048387Y025654
X048387Y028194
X050927Y025654
X050927Y028194
X053467Y025654
X053467Y028194
X080137Y056950
X077597Y056950
X080137Y059490
X077597Y059490
X080137Y062030
X077597Y062030
X003810Y074168
X003810Y076708
X118872Y077978
X118872Y075438
X118872Y072898
X118872Y070358
X118872Y067818
X118872Y065278
X084963Y009525
X087503Y009525
X090043Y009525
X030607Y039678
X028067Y039678
X030607Y042218
X028067Y042218
X030607Y044758
X028067Y044758
X028067Y037138
X030607Y037138
X028067Y034598
X030607Y034598
X028067Y032058
X030607Y032058
T07
X109601Y058420
X107061Y058420
X104521Y058420
X101981Y058420
X099441Y058420
X096901Y058420
X094361Y058420
X091821Y058420
X109601Y050800
X107061Y050800
X104521Y050800
X101981Y050800
X099441Y050800
X096901Y050800
X094361Y050800
X091821Y050800
X049403Y005588
X051943Y005588
X054483Y005588
X057023Y005588
X059563Y005588
X062103Y005588
X064643Y005588
X067183Y005588
X049403Y013208
X051943Y013208
X054483Y013208
X057023Y013208
X059563Y013208
X062103Y013208
X064643Y013208
X067183Y013208
X107950Y036068
X105410Y036068
X102870Y036068
X100330Y036068
X097790Y036068
X095250Y036068
X092710Y036068
X090170Y036068
X107950Y028448
X105410Y028448
X102870Y028448
X100330Y028448
X097790Y028448
X095250Y028448
X092710Y028448
X090170Y028448
T08
X116606Y016764
X119106Y016764
X077597Y051870
X077597Y054410
X080137Y051870
X080137Y054410
X072009Y028194
X072009Y025654
X069469Y028194
X069469Y025654
X080411Y016764
X082911Y016764
X089555Y016764
X092055Y016764
X098572Y016764
X101072Y016764
X107716Y016764
X110216Y016764
T09
X087493Y-000127
X079893Y-000127
X005001Y066439G85X005001Y067039
X008301Y062039G85X007701Y062039
X011001Y066439G85X011001Y067039
T10
X111125Y007239
X113665Y007239
X116205Y007239
X118745Y007239
X053340Y017590
X050800Y017590
X048260Y017590
X102997Y024257
X105537Y024257
X108077Y024257
X104013Y046292
X106553Y046292
X109093Y046292
X115189Y047625
X115189Y050165
X115189Y052705
X115189Y055245
X115189Y057785
X115316Y025908
X115316Y028448
X115316Y030988
X115316Y033528
X115316Y036068
X072390Y003048
X072390Y005588
X072390Y008128
X072390Y010668
X072390Y013208
T11
X097830Y006223
X100330Y006223
X102830Y006223
X065913Y017590
X063373Y017590
X060833Y017590
X058293Y017590
X090551Y024257
X093091Y024257
X095631Y024257
X098171Y024257
X090297Y046292
X092837Y046292
X095377Y046292
X097917Y046292
X003810Y018923
X003810Y016383
X003810Y013843
X003810Y011303
X003810Y008763
X003810Y006223
M30
